<?xml version="1.0" standalone="no"?><!DOCTYPE svg PUBLIC "-//W3C//DTD SVG 1.1//EN" "http://www.w3.org/Graphics/SVG/1.1/DTD/svg11.dtd"><svg t="1624009070914" class="icon" viewBox="0 0 1024 1024" version="1.1" xmlns="http://www.w3.org/2000/svg" p-id="5278" xmlns:xlink="http://www.w3.org/1999/xlink" width="200" height="200"><defs><style type="text/css"></style></defs><path d="M399.113465 480.489332 145.638473 480.489332c-44.467771 0-81.527828-57.805544-81.527828-102.276385L64.110645 145.492652c0-44.469817 37.061081-81.528851 81.527828-81.528851L399.113465 63.963801c44.470841 0 81.510432 37.059034 81.510432 81.528851l0 251.984035C480.623897 443.428252 443.584306 480.489332 399.113465 480.489332L399.113465 480.489332 399.113465 480.489332M418.387437 164.758438c0-20.754696-16.312524-37.059034-37.077453-37.059034L161.942811 127.699404c-19.274996 0-35.579333 16.305361-35.579333 37.059034l0 219.385593c0 20.745487 16.304338 37.049824 37.060057 37.049824l219.376383 0c20.763906 0 37.058011-16.303314 37.058011-37.049824L419.857928 164.758438 418.387437 164.758438 418.387437 164.758438M877.883643 480.489332 624.410698 480.489332c-44.471864 0-81.508385-57.805544-81.508385-102.276385L542.902312 145.492652c0-44.469817 37.036521-81.528851 81.508385-81.528851l253.471922 0c44.471864 0 81.532945 37.059034 81.532945 81.528851l0 251.984035C959.415564 443.428252 923.825998 480.489332 877.883643 480.489332L877.883643 480.489332 877.883643 480.489332M897.159662 164.758438c0-20.754696-16.295128-37.059034-37.059034-37.059034L642.216225 127.699404c-20.766976 0-37.078477 16.305361-37.078477 37.059034l0 219.385593c0 20.745487 16.311501 37.049824 37.078477 37.049824l219.374336 0c20.745487 0 37.038568-16.303314 37.038568-37.049824L898.629129 164.758438 897.159662 164.758438 897.159662 164.758438M877.883643 959.27793 624.410698 959.27793c-44.471864 0-81.508385-57.824987-81.508385-102.294804L542.902312 625.765043c0-44.481074 37.036521-81.542154 81.508385-81.542154l253.471922 0c44.471864 0 81.532945 37.061081 81.532945 81.542154l0 251.983012C959.415564 922.199453 923.825998 959.27793 877.883643 959.27793L877.883643 959.27793 877.883643 959.27793M897.159662 643.528616c0-20.74344-16.295128-37.038568-37.059034-37.038568L642.216225 606.490048c-20.766976 0-37.078477 16.295128-37.078477 37.038568l0 219.394802c0 20.74651 16.311501 37.059034 37.078477 37.059034l219.374336 0c20.745487 0 37.038568-16.311501 37.038568-37.059034L898.629129 643.528616 897.159662 643.528616 897.159662 643.528616M399.113465 959.27793 145.638473 959.27793c-44.467771 0-81.527828-57.824987-81.527828-102.294804L64.110645 625.765043c0-44.481074 37.061081-81.542154 81.527828-81.542154L399.113465 544.222889c44.470841 0 81.510432 37.061081 81.510432 81.542154l0 251.983012C480.623897 922.199453 443.584306 959.27793 399.113465 959.27793L399.113465 959.27793 399.113465 959.27793M418.387437 643.528616c0-20.74344-16.312524-37.038568-37.077453-37.038568L161.942811 606.490048c-20.75265 0-37.056987 16.295128-37.056987 37.038568l0 219.394802c0 20.74651 16.305361 37.059034 37.056987 37.059034l219.367173 0c20.764929 0 37.077453-16.311501 37.077453-37.059034L418.387437 643.528616 418.387437 643.528616 418.387437 643.528616M439.133947 148.455123" p-id="5279"></path></svg>