<?xml version="1.0" standalone="no"?><!DOCTYPE svg PUBLIC "-//W3C//DTD SVG 1.1//EN" "http://www.w3.org/Graphics/SVG/1.1/DTD/svg11.dtd"><svg t="1623993836025" class="icon" viewBox="0 0 1024 1024" version="1.1" xmlns="http://www.w3.org/2000/svg" p-id="1302" xmlns:xlink="http://www.w3.org/1999/xlink" width="200" height="200"><defs><style type="text/css"></style></defs><path d="M1017.9584 523.0592L598.8352 104.448a122.88 122.88 0 0 0-174.08 0L6.0416 523.0592a20.48 20.48 0 0 0 0 28.9792 20.48 20.48 0 0 0 28.8768 0L454.0416 133.12a81.92 81.92 0 0 1 115.9168 0L839.68 402.8416V829.44a81.92 81.92 0 0 1-81.92 81.92H655.36V634.88a82.432 82.432 0 0 0-81.92-81.92H450.56a82.432 82.432 0 0 0-81.92 81.92v276.48H266.24a81.92 81.92 0 0 1-81.92-81.92V532.48a20.48 20.48 0 0 0-40.96 0v296.96a122.88 122.88 0 0 0 122.88 122.88h491.52a122.88 122.88 0 0 0 122.88-122.88V443.8016l108.4416 108.2368a20.48 20.48 0 0 0 14.4384 6.0416 20.48 20.48 0 0 0 14.5408-6.0416 20.48 20.48 0 0 0-0.1024-28.9792zM409.6 634.88a40.96 40.96 0 0 1 40.96-40.96h122.88a40.96 40.96 0 0 1 40.96 40.96v276.48H409.6zM706.56 148.48h92.16a40.96 40.96 0 0 1 40.96 40.96v92.16a20.48 20.48 0 0 0 40.96 0v-92.16a81.92 81.92 0 0 0-81.92-81.92h-92.16a20.48 20.48 0 0 0 0 40.96z" p-id="1303" fill="#2c2c2c"></path></svg>