<?xml version="1.0" standalone="no"?><!DOCTYPE svg PUBLIC "-//W3C//DTD SVG 1.1//EN" "http://www.w3.org/Graphics/SVG/1.1/DTD/svg11.dtd"><svg t="1623993900814" class="icon" viewBox="0 0 1024 1024" version="1.1" xmlns="http://www.w3.org/2000/svg" p-id="1696" xmlns:xlink="http://www.w3.org/1999/xlink" width="200" height="200"><defs><style type="text/css"></style></defs><path d="M952.32 928.3584c-28.672-166.1952-156.2624-295.3216-321.024-337.92A272.384 272.384 0 0 0 791.7568 344.064C791.7568 193.8432 666.3168 71.68 512 71.68S232.2432 193.8432 232.2432 344.064a272.384 272.384 0 0 0 160.768 246.4768C228.2496 633.0368 100.6592 762.1632 71.68 928.3584a20.48 20.48 0 1 0 40.3456 6.9632C144.1792 750.592 312.32 616.448 512 616.448s367.8208 134.144 399.36 318.8736A20.48 20.48 0 0 0 931.84 952.32a20.48 20.48 0 0 0 3.4816 0A20.48 20.48 0 0 0 952.32 928.3584zM273.2032 344.064C273.2032 216.4736 380.3136 112.64 512 112.64s238.7968 103.8336 238.7968 231.424S643.6864 575.488 512 575.488 273.2032 471.6544 273.2032 344.064z" p-id="1697" fill="#d4237a"></path></svg>